<svg width="202" height="258" viewBox="0 0 202 258" fill="none" xmlns="http://www.w3.org/2000/svg">
<path d="M152.144 14.0659C172.026 20.4447 180.656 40.7965 171.422 59.5227L74.7853 255.484L2.78893 232.384L99.4254 36.423C108.66 17.6968 132.263 7.68714 152.144 14.0659Z" stroke="white" stroke-width="4"/>
<path d="M181.177 112.555C191.079 115.733 195.377 125.869 190.777 135.196L138.548 241.108L102.689 229.603L154.919 123.691C159.518 114.364 171.274 109.378 181.177 112.555Z" stroke="white" stroke-width="4"/>
<path d="M125.235 23.0744C125.92 21.6849 127.672 20.9423 129.147 21.4156C130.622 21.8888 131.262 23.3989 130.577 24.7883L105.141 76.3681C104.456 77.7575 102.704 78.5002 101.229 78.0269C99.7543 77.5536 99.1139 76.0436 99.7991 74.6542L125.235 23.0744Z" fill="#4188F1"/>
<path d="M105.423 71.1641C105.644 70.7167 105.438 70.2305 104.963 70.0781C104.488 69.9256 103.924 70.1648 103.703 70.6122L32.1464 215.716C31.9258 216.163 32.132 216.65 32.607 216.802C33.082 216.954 33.6459 216.715 33.8666 216.268L105.423 71.1641Z" fill="#4188F1"/>
<path d="M196.819 71.4623C197.352 70.3804 198.716 69.8022 199.865 70.1707C201.013 70.5392 201.512 71.7149 200.978 72.7968L181.173 112.958C180.64 114.04 179.276 114.618 178.127 114.25C176.979 113.881 176.48 112.705 177.014 111.623L196.819 71.4623Z" fill="#4188F1"/>
<path d="M180.067 111.847C180.239 111.498 180.079 111.12 179.709 111.001C179.339 110.882 178.9 111.069 178.728 111.417L124.463 221.457C124.291 221.806 124.451 222.184 124.821 222.303C125.191 222.421 125.63 222.235 125.802 221.887L180.067 111.847Z" fill="#4188F1"/>
<path d="M122.028 71.3026C124.74 65.8036 131.671 62.8642 137.509 64.7374C143.348 66.6105 145.882 72.5869 143.17 78.0859L76.68 212.916C73.9681 218.415 67.037 221.355 61.1988 219.481C55.3606 217.608 52.8261 211.632 55.5379 206.133L122.028 71.3026Z" fill="#4188F1"/>
</svg>
